<?xml version="1.0" encoding="UTF-8" standalone="no"?>
<!-- Created with Inkscape (http://www.inkscape.org/) -->

<svg
   xmlns:dc="http://purl.org/dc/elements/1.1/"
   xmlns:cc="http://creativecommons.org/ns#"
   xmlns:rdf="http://www.w3.org/1999/02/22-rdf-syntax-ns#"
   xmlns:svg="http://www.w3.org/2000/svg"
   xmlns="http://www.w3.org/2000/svg"
   xmlns:sodipodi="http://sodipodi.sourceforge.net/DTD/sodipodi-0.dtd"
   xmlns:inkscape="http://www.inkscape.org/namespaces/inkscape"
   width="128"
   height="128"
   viewBox="0 0 33.866666 33.866668"
   version="1.1"
   id="svg1521"
   inkscape:version="0.92.4 5da689c313, 2019-01-14"
   sodipodi:docname="logo_128.svg">
  <defs
     id="defs1515" />
  <sodipodi:namedview
     id="base"
     pagecolor="#ffffff"
     bordercolor="#666666"
     borderopacity="1.0"
     inkscape:pageopacity="0.0"
     inkscape:pageshadow="2"
     inkscape:zoom="1.4"
     inkscape:cx="137.70175"
     inkscape:cy="124.84517"
     inkscape:document-units="mm"
     inkscape:current-layer="flowRoot815"
     showgrid="false"
     units="px"
     inkscape:window-width="1920"
     inkscape:window-height="1017"
     inkscape:window-x="0"
     inkscape:window-y="0"
     inkscape:window-maximized="1" />
  <metadata
     id="metadata1518">
    <rdf:RDF>
      <cc:Work
         rdf:about="">
        <dc:format>image/svg+xml</dc:format>
        <dc:type
           rdf:resource="http://purl.org/dc/dcmitype/StillImage" />
        <dc:title></dc:title>
      </cc:Work>
    </rdf:RDF>
  </metadata>
  <g
     inkscape:label="Layer 1"
     inkscape:groupmode="layer"
     id="layer1"
     transform="translate(0,-263.13332)">
    <g
       aria-label="D I R R I D E "
       transform="matrix(0.10152876,0,0,0.10152876,6.6682295,253.22245)"
       style="font-style:normal;font-weight:normal;font-size:40px;line-height:1.25;font-family:sans-serif;letter-spacing:0px;word-spacing:0px;fill:#162d50;fill-opacity:1;stroke:none"
       id="flowRoot815">
      <path
         d="m -30.320905,412.42359 h 9.46313 c 7.444329,0 11.860456,-4.73156 11.860456,-12.99603 v -18.80009 c 0,-8.0752 -4.35304,-12.36515 -11.860456,-12.36515 h -9.46313 z m 2.018801,-1.95571 v -40.24985 h 7.444329 c 6.308753,0 9.841655,3.40673 9.841655,10.47253 v 18.67391 c 0,7.25507 -3.595989,11.10341 -9.841655,11.10341 z"
         style="font-style:normal;font-variant:normal;font-weight:300;font-stretch:normal;font-family:Akrobat;-inkscape-font-specification:'Akrobat Light';fill:#162d50;fill-opacity:1;stroke-width:1.57718837"
         id="path2090"
         inkscape:connector-curvature="0" />
      <path
         d="m 16.3008,368.26232 v 44.16127 h 2.018801 v -44.16127 z"
         style="font-style:normal;font-variant:normal;font-weight:300;font-stretch:normal;font-family:Akrobat;-inkscape-font-specification:'Akrobat Light';fill:#162d50;fill-opacity:1;stroke-width:1.57718837"
         id="path2092"
         inkscape:connector-curvature="0" />
      <path
         d="m 64.184343,412.42359 h 2.271152 L 55.730614,393.81277 c 6.245666,-0.56779 10.030918,-5.29935 10.030918,-12.99603 0,-8.1383 -4.163777,-12.55442 -12.302069,-12.55442 h -8.642992 v 44.16127 h 2.018801 V 393.87586 H 53.52255 Z M 46.835272,370.15494 h 6.624191 c 6.813453,0 10.283268,3.5329 10.283268,10.72488 0,7.31816 -3.532902,11.04032 -9.084605,11.04032 h -7.822854 z"
         style="font-style:normal;font-variant:normal;font-weight:300;font-stretch:normal;font-family:Akrobat;-inkscape-font-specification:'Akrobat Light';fill:#162d50;fill-opacity:1;stroke-width:1.57718837"
         id="path2094"
         inkscape:connector-curvature="0" />
      <path
         d="m 109.22887,412.42359 h 2.27115 l -10.72488,-18.61082 c 6.24567,-0.56779 10.03092,-5.29935 10.03092,-12.99603 0,-8.1383 -4.16378,-12.55442 -12.302067,-12.55442 h -8.642992 v 44.16127 h 2.018801 V 393.87586 H 98.56708 Z M 91.879802,370.15494 h 6.624191 c 6.813457,0 10.283267,3.5329 10.283267,10.72488 0,7.31816 -3.5329,11.04032 -9.084604,11.04032 h -7.822854 z"
         style="font-style:normal;font-variant:normal;font-weight:300;font-stretch:normal;font-family:Akrobat;-inkscape-font-specification:'Akrobat Light';fill:#162d50;fill-opacity:1;stroke-width:1.57718837"
         id="path2096"
         inkscape:connector-curvature="0" />
      <path
         d="m 134.90555,368.26232 v 44.16127 h 2.0188 v -44.16127 z"
         style="font-style:normal;font-variant:normal;font-weight:300;font-stretch:normal;font-family:Akrobat;-inkscape-font-specification:'Akrobat Light';fill:#162d50;fill-opacity:1;stroke-width:1.57718837"
         id="path2098"
         inkscape:connector-curvature="0" />
      <path
         d="m 163.42122,412.42359 h 9.46313 c 7.44433,0 11.86046,-4.73156 11.86046,-12.99603 v -18.80009 c 0,-8.0752 -4.35304,-12.36515 -11.86046,-12.36515 h -9.46313 z m 2.0188,-1.95571 v -40.24985 h 7.44433 c 6.30875,0 9.84166,3.40673 9.84166,10.47253 v 18.67391 c 0,7.25507 -3.59599,11.10341 -9.84166,11.10341 z"
         style="font-style:normal;font-variant:normal;font-weight:300;font-stretch:normal;font-family:Akrobat;-inkscape-font-specification:'Akrobat Light';fill:#162d50;fill-opacity:1;stroke-width:1.57718837"
         id="path2100"
         inkscape:connector-curvature="0" />
      <path
         d="m 212.06173,410.53096 v -19.62022 h 16.21349 v -1.89262 h -16.21349 v -18.86318 h 17.53833 v -1.89262 h -19.55713 v 44.16127 h 19.74639 v -1.89263 z"
         style="font-style:normal;font-variant:normal;font-weight:300;font-stretch:normal;font-family:Akrobat;-inkscape-font-specification:'Akrobat Light';fill:#162d50;fill-opacity:1;stroke-width:1.57718837"
         id="path2102"
         inkscape:connector-curvature="0" />
    </g>
    <path
       style="opacity:1;fill:#2c89a0;fill-opacity:1;stroke:none;stroke-width:1.57718837;stroke-linecap:round;stroke-miterlimit:4;stroke-dasharray:none;stroke-dashoffset:0;stroke-opacity:0.39247317;paint-order:stroke fill markers"
       d="m 2.352117,268.53582 15.096073,0.10031 1.644502,-1.65829 12.331673,0.0819 c 0.577961,0.003 1.040124,0.47219 1.036292,1.05014 l -0.131853,19.85101 c -0.0032,0.57795 -0.472211,1.04014 -1.050155,1.03631 L 2.2175039,288.80409 c -0.5779606,-0.003 -1.0401241,-0.47221 -1.0362915,-1.05015 L 1.302025,269.57208 c 0.00315,-0.57793 0.4721944,-1.04012 1.0501393,-1.03627 z"
       id="rect825"
       inkscape:connector-curvature="0"
       sodipodi:nodetypes="sccssssssss" />
    <path
       style="fill:#374548;fill-opacity:1;stroke:none;stroke-width:0.41729772px;stroke-linecap:butt;stroke-linejoin:miter;stroke-opacity:1"
       d="m 1.2249793,270.01846 c 2.8108651,2.87458 10.7790407,2.62502 15.1332317,2.49457 l 2.598654,2.4158 c 0,0 -4.462985,4.42611 -4.868717,4.68429 -0.405716,0.25821 -3.555929,3.01169 -3.555929,3.01169 -2.8011806,1.22893 -8.775254,2.6837 -9.337017,2.03712 z"
       id="path973"
       inkscape:connector-curvature="0"
       sodipodi:nodetypes="ccccccc" />
    <path
       style="fill:#bfd6ff;fill-opacity:1;stroke:none;stroke-width:0.48557621px;stroke-linecap:butt;stroke-linejoin:miter;stroke-opacity:1"
       d="m 10.532219,282.62481 4.378953,-2.01492 0.792316,0.33661 15.367019,-8.43222 -15.43099,5.05389 -2.635481,1.17559 z"
       id="path827-3"
       inkscape:connector-curvature="0"
       sodipodi:nodetypes="ccccccc" />
    <path
       style="fill:#ffffff;fill-opacity:1;stroke:none;stroke-width:0.56945139px;stroke-linecap:butt;stroke-linejoin:miter;stroke-opacity:1"
       d="m 15.969024,272.52985 15.101483,-0.0158 -14.249029,7.72592 -1.11799,0.70633 -1.720507,-3.76555 z"
       id="path827"
       inkscape:connector-curvature="0"
       sodipodi:nodetypes="cccccc" />
    <path
       style="fill:#bfd6ff;fill-opacity:1;stroke:none;stroke-width:0.51371068px;stroke-linecap:butt;stroke-linejoin:miter;stroke-opacity:1"
       d="m 31.070507,272.51423 -15.101483,0.0158 -1.986043,4.6511 z"
       id="path844"
       inkscape:connector-curvature="0" />
    <path
       inkscape:connector-curvature="0"
       style="opacity:1;fill:#16505d;fill-opacity:1;stroke:none;stroke-width:3.15437675;stroke-linecap:round;stroke-miterlimit:4;stroke-dasharray:none;stroke-dashoffset:0;stroke-opacity:1;paint-order:stroke fill markers"
       d="m 32.360663,283.21609 c -3.1575,0.60119 -22.25378,4.23631 -29.5727216,5.59195 l 28.4903606,0.18907 c 0.577944,0.003 1.047426,-0.45797 1.050581,-1.0359 z"
       id="rect825-0" />
  </g>
</svg>
